<svg width="24" height="28" viewBox="0 0 24 28" fill="currentColor" xmlns="http://www.w3.org/2000/svg">
<path d="M15 0.5H9C4.23375 0.5 0.5 6.43 0.5 14C0.5 21.57 4.23375 27.5 9 27.5H15C19.7663 27.5 23.5 21.57 23.5 14C23.5 6.43 19.7663 0.5 15 0.5ZM19.6513 19.5H16.7887C17.1419 18.192 17.3634 16.852 17.45 15.5H20.4412C20.3428 16.8607 20.0774 18.2041 19.6513 19.5ZM17.45 12.5C17.3634 11.148 17.1419 9.80797 16.7887 8.5H19.6513C20.0774 9.79594 20.3428 11.1393 20.4412 12.5H17.45ZM18.1537 5.5H15.6537C15.3022 4.79478 14.8836 4.12503 14.4037 3.5H15C15.6713 3.5 16.9062 3.78125 18.1537 5.5ZM5.34625 21.73C4.155 19.6887 3.5 16.9438 3.5 14C3.5 11.0562 4.155 8.31125 5.34625 6.27C6.75 3.86 8.23875 3.5 9 3.5C9.76125 3.5 11.25 3.86 12.6537 6.27C13.845 8.31125 14.5 11.0562 14.5 14C14.5 16.9438 13.845 19.6887 12.6537 21.73C11.25 24.14 9.76125 24.5 9 24.5C8.23875 24.5 6.75 24.14 5.34625 21.73ZM15 24.5H14.4013C14.8811 23.875 15.2997 23.2052 15.6513 22.5H18.1513C16.9062 24.2188 15.6713 24.5 15 24.5Z" fill="currentColor"/>
</svg>
