<svg width="14" height="12" viewBox="0 0 14 12" fill="none" xmlns="http://www.w3.org/2000/svg">
<path fill-rule="evenodd" clip-rule="evenodd" d="M6.24287 0.62224C6.39162 0.34224 6.6827 0.166656 7.00004 0.166656C7.31737 0.166656 7.60845 0.34224 7.7572 0.62224L9.19395 3.33182C9.21029 3.36332 9.2342 3.39016 9.26279 3.41116C9.29137 3.43216 9.32462 3.44616 9.35962 3.45199L12.3801 3.98107C12.6928 4.03591 12.9489 4.25874 13.0475 4.56032C13.1455 4.86191 13.069 5.19324 12.848 5.42132L10.7153 7.62516C10.6908 7.65082 10.6721 7.68174 10.661 7.71499C10.65 7.74882 10.647 7.78441 10.6517 7.81999L11.0816 10.8562C11.126 11.1701 10.9935 11.4833 10.7369 11.67C10.4802 11.8567 10.1419 11.8858 9.85662 11.7464L7.10212 10.3989C7.07062 10.3832 7.03562 10.375 7.00004 10.375C6.96445 10.375 6.92945 10.3832 6.89737 10.3983L4.14287 11.7458C3.85762 11.8852 3.51929 11.8555 3.26262 11.6694C3.00595 11.4827 2.87354 11.1701 2.91787 10.8557L3.34779 7.81941C3.35304 7.78441 3.34954 7.74824 3.33845 7.71441C3.32737 7.68057 3.30929 7.64966 3.2842 7.62457L1.15154 5.42074C0.931035 5.19266 0.854035 4.86132 0.952035 4.55974C1.05004 4.25816 1.3067 4.03532 1.61937 3.98049L4.63987 3.45141C4.67487 3.44499 4.70812 3.43099 4.7367 3.41057C4.76529 3.38957 4.7892 3.36274 4.80554 3.33124L6.24287 0.62224Z" fill="white"/>
</svg>
