<svg width="28" height="26" viewBox="0 0 28 26" fill="none" xmlns="http://www.w3.org/2000/svg">
<path d="M23.251 0.75L23.4336 0.758789C23.8559 0.795262 24.2614 0.949965 24.6016 1.20703C24.9417 1.46422 25.2013 1.81155 25.3516 2.20801L25.4092 2.38086L27.2031 8.65625L27.2383 8.82715C27.2461 8.88438 27.2503 8.9421 27.25 9V11C27.25 11.815 27.0598 12.6187 26.6953 13.3477C26.3499 14.0385 25.8556 14.6424 25.25 15.1201V24C25.25 24.3315 25.1182 24.6494 24.8838 24.8838C24.6494 25.1182 24.3315 25.25 24 25.25H4C3.66848 25.25 3.35063 25.1182 3.11621 24.8838C2.88179 24.6494 2.75 24.3315 2.75 24V15.1201C2.14443 14.6424 1.65009 14.0385 1.30469 13.3477C0.940192 12.6187 0.75 11.815 0.75 11V9C0.749881 8.88349 0.766489 8.76721 0.798828 8.65527L2.59082 2.38086L2.64844 2.20801C2.79872 1.81155 3.0583 1.46422 3.39844 1.20703C3.7873 0.913169 4.26162 0.752604 4.74902 0.75H23.251ZM18 14.3994C17.5428 14.9374 16.9812 15.3786 16.3477 15.6953C15.6187 16.0598 14.815 16.25 14 16.25C13.185 16.25 12.3813 16.0598 11.6523 15.6953C11.0188 15.3786 10.4572 14.9374 10 14.3994C9.54275 14.9374 8.98116 15.3786 8.34766 15.6953C7.7097 16.0143 7.01463 16.1999 6.30469 16.2412L6 16.25C5.7489 16.2499 5.49833 16.2308 5.25 16.1953V22.75H22.75V16.1953C22.5886 16.2184 22.4265 16.235 22.2637 16.2432L22 16.25C21.185 16.25 20.3813 16.0598 19.6523 15.6953C19.0188 15.3786 18.4572 14.9374 18 14.3994ZM11.25 11C11.25 11.7293 11.5399 12.4286 12.0557 12.9443C12.5714 13.4601 13.2707 13.75 14 13.75C14.7293 13.75 15.4286 13.4601 15.9443 12.9443C16.4601 12.4286 16.75 11.7293 16.75 11V10.25H11.25V11ZM19.25 11L19.2559 11.1768C19.2826 11.5881 19.4012 11.9892 19.6045 12.3496C19.8369 12.7615 20.1725 13.1068 20.5771 13.3516C20.9817 13.5962 21.4425 13.7325 21.915 13.7471C22.3846 13.7616 22.8497 13.6549 23.2666 13.4385C23.3347 13.3888 23.4077 13.3466 23.4844 13.3115C23.8714 13.0633 24.1901 12.7225 24.4111 12.3193C24.6328 11.9149 24.7496 11.4612 24.75 11V10.25H19.25V11ZM3.25 11L3.25586 11.1719C3.28123 11.5733 3.39405 11.9653 3.58789 12.3193C3.80803 12.7213 4.12554 13.0614 4.51074 13.3096C4.58901 13.3447 4.66312 13.3879 4.73242 13.4385C5.14987 13.6554 5.61566 13.7627 6.08594 13.748C6.5585 13.7333 7.01934 13.5964 7.42383 13.3516C7.82837 13.1067 8.16325 12.7615 8.39551 12.3496C8.62775 11.9377 8.74982 11.4729 8.75 11V10.25H3.25V11ZM3.65723 7.75H24.3467L23.0615 3.25H4.93848L3.65723 7.75Z" fill="currentColor" stroke="currentColor" stroke-width="0.5"/>
</svg>
