<svg width="28" height="28" viewBox="0 0 28 28" fill="none" xmlns="http://www.w3.org/2000/svg">
<path d="M14.3291 0.754883C17.7228 0.842544 20.9588 2.22838 23.3652 4.63477C25.8492 7.11877 27.2463 10.4871 27.25 14L27.2412 14.4902C27.1506 16.9391 26.3816 19.3185 25.0166 21.3613C23.5607 23.5402 21.4914 25.2384 19.0703 26.2412C16.6492 27.244 13.9852 27.5064 11.415 26.9951C8.84482 26.4839 6.48389 25.2222 4.63086 23.3691C2.77783 21.5161 1.51615 19.1552 1.00488 16.585C0.493639 14.0148 0.755976 11.3508 1.75879 8.92969C2.76162 6.50864 4.45981 4.43932 6.63867 2.9834C8.81762 1.52747 11.3794 0.750001 14 0.75L14.3291 0.754883ZM22.25 7.24902C22.2511 7.78609 22.0596 8.30634 21.7109 8.71484V8.71582L18.9395 11.9355C18.6246 12.3007 18.202 12.5538 17.7354 12.6602L17.5332 12.6963L13.5977 13.2305C13.0379 13.307 12.4704 13.1687 12.0078 12.8447L9.71484 11.3447L7.27539 14.9893L7.25 19.4424C7.24845 19.8131 7.15489 20.1779 6.97852 20.5039C6.80215 20.8297 6.54853 21.1075 6.23926 21.3115H6.23828L6.16992 21.3555C7.78719 23.0821 9.93043 24.2296 12.2705 24.6123C14.5981 24.9929 16.9824 24.5942 19.0576 23.4863L19.0459 23.4746L16.4287 22.7842C15.8932 22.6436 15.4284 22.3105 15.123 21.8486C14.8177 21.3866 14.6938 20.8281 14.7744 20.2803V20.2793L15.0723 18.2559L15.0986 18.1123C15.1701 17.7816 15.315 17.4703 15.5234 17.2021C15.7617 16.8957 16.0756 16.6561 16.4336 16.5059L16.4346 16.5049L20.2412 14.9238H20.2422C20.638 14.7603 21.0725 14.7134 21.4941 14.7881C21.9158 14.8629 22.3076 15.0561 22.623 15.3457H22.6221L24.3457 16.9219C24.8321 15.2003 24.8822 13.3827 24.4863 11.6338C24.1094 9.96898 23.3412 8.42168 22.25 7.11719V7.24902ZM17.5244 18.7588L17.2793 20.4209L19.7441 21.0723C20.1304 21.1741 20.4827 21.3771 20.7646 21.6602L21.1338 22.0303C21.9968 21.261 22.7307 20.3595 23.3076 19.3574L21.0527 17.291L17.5244 18.7588ZM14 3.25C12.0938 3.25 10.2219 3.75703 8.57617 4.71875C6.93062 5.68039 5.57044 7.06221 4.63477 8.72266C3.69911 10.3833 3.22102 12.2631 3.25098 14.1689C3.27962 15.9881 3.77058 17.7686 4.67383 19.3447L4.75 19.2939L4.77832 14.8994C4.78076 14.4584 4.91307 14.0278 5.1582 13.6611L7.77637 9.74805C7.94313 9.49906 8.15793 9.28593 8.4082 9.12109C8.65875 8.95614 8.94042 8.84285 9.23535 8.78809C9.53017 8.73339 9.83303 8.73777 10.126 8.80176C10.4159 8.8651 10.6903 8.98543 10.9336 9.15527L13.3545 10.7393L17.1006 10.2324L19.75 7.15625V4.92285C18.0324 3.82951 16.0379 3.24784 14 3.25Z" fill="currentColor" stroke="currentColor" stroke-width="0.5"/>
</svg>
