<svg width="28" height="28" viewBox="0 0 28 28" fill="none" xmlns="http://www.w3.org/2000/svg">
<path d="M14.3811 0.755859C16.2644 0.810227 18.1161 1.26497 19.8118 2.09277C21.6204 2.97572 23.204 4.25935 24.4426 5.8457C25.6812 7.43214 26.5423 9.2802 26.9602 11.249C27.3781 13.2178 27.3422 15.2562 26.8547 17.209C26.3673 19.1618 25.4408 20.978 24.1467 22.5195C22.8527 24.0609 21.2246 25.2872 19.386 26.1055C17.5472 26.9237 15.5458 27.3127 13.5344 27.2422C11.559 27.1729 9.62513 26.6606 7.87329 25.7471L3.71704 27.1338C3.32065 27.266 2.89522 27.2844 2.48853 27.1885C2.08181 27.0925 1.7098 26.8853 1.41431 26.5898C1.1188 26.2943 0.91166 25.9224 0.815674 25.5156C0.7197 25.1089 0.738168 24.6835 0.870361 24.2871L2.2561 20.1299C1.21513 18.1353 0.698066 15.9085 0.756104 13.6582C0.815114 11.3715 1.46504 9.13874 2.64282 7.17773C3.82063 5.2168 5.48588 3.59415 7.47681 2.46777C9.46783 1.34134 11.7166 0.749501 14.0042 0.75L14.3811 0.755859ZM19.3733 4.6875C17.3231 3.50511 14.9393 3.03255 12.593 3.34277C10.2468 3.65302 8.06818 4.72878 6.39575 6.40332C4.72334 8.07789 3.65027 10.2578 3.34302 12.6045C3.03579 14.9512 3.51157 17.3341 4.69653 19.3828C4.78497 19.5359 4.83984 19.7059 4.85767 19.8818C4.87099 20.0139 4.8636 20.1473 4.83521 20.2764L4.80005 20.4043L3.39966 24.6035L7.59985 23.2031C7.76788 23.1472 7.94615 23.1275 8.12231 23.1455C8.29847 23.1636 8.46913 23.2188 8.62231 23.3076C10.258 24.2537 12.1146 24.7513 14.0042 24.75C16.3706 24.7496 18.6709 23.9683 20.5481 22.5273C22.4253 21.0862 23.7751 19.0655 24.387 16.7793C24.9988 14.493 24.8385 12.068 23.9319 9.88184C23.0253 7.69593 21.4232 5.86981 19.3733 4.6875Z" fill="#51525C" stroke="#51525C" stroke-width="0.5"/>
</svg>
